<svg width="400" height="400" viewBox="0 0 400 400" xmlns="http://www.w3.org/2000/svg">
  <!-- Sfondo Tondo Blu Scuro -->
  <circle cx="200" cy="200" r="190" fill="#2C3278" />

  <!-- Scia/Onda inferiore (Swoosh) -->
  <!-- Swoosh grande viola scuro -->
  <path d="M80,260 
           Q110,360 200,340 
           Q280,320 320,220 
           L335,230 
           Q300,340 200,360 
           Q100,380 70,280 Z" 
        fill="#534FB1" opacity="0.9" />
        
  <!-- Swoosh piccola interna (più chiara) -->
  <path d="M120,290 Q160,330 220,310" 
        fill="none" stroke="#686CCF" stroke-width="12" stroke-linecap="round" />

  <!-- Stella Principale Bianca -->
  <!-- Uso curve di Bezier per ottenere l'effetto "pizzicato" esatto -->
  <path d="M200,50 
           C215,160 215,160 350,200 
           C215,240 215,240 200,350 
           C185,240 185,240 50,200 
           C185,160 185,160 200,50 Z" 
        fill="#FFFFFF" />

  <!-- Elementi decorativi -->
  
  <!-- Stella piccola a destra (inclinata) -->
  <path d="M280,110 C290,105 290,105 300,100 C290,95 290,95 280,90 C270,95 270,95 260,100 C270,105 270,105 280,110 Z" 
        fill="#FFFFFF" transform="rotate(-15, 280, 100)" />

  <!-- Pallini a sinistra -->
  <!-- Pallino bianco in alto -->
  <circle cx="140" cy="85" r="5" fill="#FFFFFF" />
  <!-- Pallino blu scuro in basso -->
  <circle cx="90" cy="140" r="7" fill="#4C54A0" />

</svg>